# xmcd
#
# Track frame offsets:
#	150
#	16365
#	32170
#	48707
#	51946
#	74121
#	92078
#	107337
#	137437
#	152015
#	168440
#
# Disc length: 2844 seconds
#
# Revision: 1
# Processed by: cddbd v1.5.2PL0 Copyright (c) Steve Scherf et al.
# Submitted via: audiograbber 1.82.02
#
DISCID=920b1a0b
DTITLE=Jagged Soul - Come with me
DYEAR=2006
DGENRE=R&B - Soul
TTITLE0=I Don't Want Ya
TTITLE1=Player
TTITLE2=Such A Shame
TTITLE3=Interlude
TTITLE4=Dreamin Of You
TTITLE5=Now That You Know
TTITLE6=Ex-girlfriend
TTITLE7=Could It Be
TTITLE8=Who Are You
TTITLE9=Come To Me
TTITLE10=Gotta Have A Break (or I'll Break Down)
EXTD=
EXTT0=
EXTT1=
EXTT2=
EXTT3=
EXTT4=
EXTT5=
EXTT6=
EXTT7=
EXTT8=
EXTT9=
EXTT10=
PLAYORDER=
